<?xml version="1.0" encoding="utf-8"?>
<!-- Generator: Adobe Illustrator 23.1.1, SVG Export Plug-In . SVG Version: 6.00 Build 0)  -->
<svg version="1.1" id="Layer_1" xmlns="http://www.w3.org/2000/svg" xmlns:xlink="http://www.w3.org/1999/xlink" x="0px" y="0px"
	 viewBox="0 0 88 88" style="enable-background:new 0 0 88 88;" xml:space="preserve">
<style type="text/css">
	.st0{fill:#FCB853;}
	.st1{fill:#F8F8F8;}
	.st2{fill:none;}
</style>
<g>
	<path id="Rectangle_14" class="st0" d="M12,0h64c6.6,0,12,5.4,12,12v64c0,6.6-5.4,12-12,12H12C5.4,88,0,82.6,0,76V12
		C0,5.4,5.4,0,12,0z"/>
	<g id="service" transform="translate(1362.059 797)">
		<g id="Layer_x0020_1" transform="translate(12.785 10.816)">
			<path id="Path_1" class="st1" d="M-1303.8-734.2h-12.4v-26c0.1-1.1-0.2-2.3-0.8-3.3c-0.8-0.9-1.9-1.3-3.1-1.2
				c-5.2,0-6.5,3.9-6.6,4.5v26h-13v-42.4h13v3.4c1.1-0.7,2.2-1.3,3.4-1.8c2.4-1,5.1-1.5,7.7-1.5c3.6,0,7.1,1.7,9.2,4.7
				c1.8,2.5,3.2,6.3,3.2,12v25.7L-1303.8-734.2L-1303.8-734.2z"/>
			<path id="Path_2" class="st1" d="M-1352.5-781.7c-3.4,0-6.2-2.8-6.2-6.2c0-3.4,2.8-6.2,6.2-6.2l0,0l0,0c1.6,0,3.2,0.7,4.3,1.8
				c1.2,1.1,1.8,2.7,1.8,4.3C-1346.3-784.5-1349.1-781.7-1352.5-781.7C-1352.5-781.7-1352.5-781.7-1352.5-781.7L-1352.5-781.7z"/>
			<path id="Path_3" class="st1" d="M-1346.6-734.2h-12.4v-42.4h13v42.4L-1346.6-734.2z"/>
		</g>
		<rect id="Rectangle_13" x="-1359" y="-794" class="st2" width="81.4" height="81.4"/>
	</g>
</g>
</svg>
