<?xml version="1.0" encoding="utf-8"?>
<!-- Generator: Adobe Illustrator 23.1.1, SVG Export Plug-In . SVG Version: 6.00 Build 0)  -->
<svg version="1.1" id="Layer_1" xmlns="http://www.w3.org/2000/svg" xmlns:xlink="http://www.w3.org/1999/xlink" x="0px" y="0px"
	 viewBox="0 0 202.5 202.5" style="enable-background:new 0 0 202.5 202.5;" xml:space="preserve">
<style type="text/css">
	.st0{fill:#FCB853;}
</style>
<path id="ic_call_24px" class="st0" d="M40.7,87.7c16.3,31.9,42.3,57.8,74.2,74.2l24.8-24.8c3-3,7.4-4.1,11.5-2.7
	c13,4.3,26.5,6.4,40.2,6.4c6.2,0,11.2,5,11.3,11.3v39.3c0,6.2-5,11.2-11.3,11.3C85.6,202.5,0,116.9,0,11.3C0,5,5,0,11.3,0h39.4
	c6.2,0,11.2,5,11.3,11.3c0,13.6,2.1,27.2,6.4,40.2c1.3,4.1,0.2,8.5-2.8,11.5L40.7,87.7z"/>
</svg>
